<svg width="31" height="30" viewBox="0 0 31 30" fill="none" xmlns="http://www.w3.org/2000/svg">
<g clip-path="url(#clip0_638_220)">
<path d="M24.705 0H5.62903C2.61734 0 0.166992 2.45035 0.166992 5.46203V24.538C0.166992 27.5497 2.61734 30 5.62903 30H24.705C27.7166 30 30.167 27.5497 30.167 24.538V5.46203C30.167 2.45035 27.7166 0 24.705 0ZM11.2533 22.474H7.48483V11.1361H11.2533V22.474ZM9.36937 9.5881H9.3451C8.08065 9.5881 7.26259 8.71703 7.26259 7.62884C7.26259 6.54065 8.10556 5.67022 9.39427 5.67022C10.683 5.67022 11.4768 6.51702 11.5017 7.62884C11.5017 8.71703 10.6836 9.5881 9.37001 9.5881H9.36937ZM24.8423 22.474H21.0738V16.4085C21.0738 14.8841 20.5284 13.8444 19.1644 13.8444C18.1234 13.8444 17.5033 14.5456 17.2307 15.2232C17.131 15.4652 17.1068 15.8037 17.1068 16.1428V22.474H13.3383C13.3383 22.474 13.3875 12.1994 13.3383 11.1361H17.1068V12.7416C17.6074 11.9688 18.5034 10.8698 20.5029 10.8698C22.9826 10.8698 24.8416 12.4906 24.8416 15.9723V22.4733L24.8423 22.474Z" fill="#E2E2E7"/>
</g>
<defs>
<clipPath id="clip0_638_220">
<rect width="30" height="30" fill="white" transform="translate(0.166992)"/>
</clipPath>
</defs>
</svg>
