<svg width="31" height="30" viewBox="0 0 31 30" fill="none" xmlns="http://www.w3.org/2000/svg">
<g clip-path="url(#clip0_640_230)">
<path d="M15.167 0C6.88359 0 0.166992 6.71526 0.166992 14.9995C0.166992 21.1418 3.86041 26.4182 9.14578 28.7383C9.10314 27.6909 9.13813 26.4335 9.4071 25.2943C9.69575 24.0763 11.3369 17.1205 11.3369 17.1205C11.3369 17.1205 10.858 16.1628 10.858 14.7469C10.858 12.5241 12.146 10.8645 13.7511 10.8645C15.1156 10.8645 15.7749 11.8889 15.7749 13.1167C15.7749 14.4878 14.9002 16.54 14.4497 18.4402C14.0736 20.031 15.2479 21.3288 16.8169 21.3288C19.6586 21.3288 21.5731 17.6792 21.5731 13.354C21.5731 10.0663 19.359 7.60633 15.331 7.60633C10.7804 7.60633 7.94635 11 7.94635 14.7895C7.94635 16.0961 8.33122 17.0177 8.93476 17.7317C9.21248 18.0597 9.25074 18.1909 9.15015 18.5681C9.07799 18.8436 8.91289 19.5084 8.8451 19.7719C8.74561 20.1512 8.43727 20.2879 8.09395 20.1469C5.99796 19.2908 5.02157 16.9959 5.02157 14.4167C5.02157 10.156 8.61549 5.04683 15.7421 5.04683C21.4692 5.04683 25.2381 9.19057 25.2381 13.6393C25.2381 19.5237 21.9667 23.92 17.1449 23.92C15.5256 23.92 14.0025 23.0442 13.4799 22.0504C13.4799 22.0504 12.6096 25.5064 12.4248 26.1733C12.1066 27.3301 11.4845 28.4857 10.9149 29.3866C12.2641 29.7846 13.6887 30.0022 15.1659 30.0022C23.4493 30.0022 30.1659 23.2869 30.1659 15.0016C30.1659 6.71635 23.4504 0 15.167 0Z" fill="#E2E2E7"/>
</g>
<defs>
<clipPath id="clip0_640_230">
<rect width="30" height="30" fill="white" transform="translate(0.166992)"/>
</clipPath>
</defs>
</svg>
