<svg width="100" height="100" viewBox="0 0 100 100" fill="none" xmlns="http://www.w3.org/2000/svg">
<path fill-rule="evenodd" clip-rule="evenodd" d="M71.4241 50C76.729 44.6949 80 37.4278 80 29.4117C80 13.1681 66.5685 0 50 0C33.4315 0 20 13.1681 20 29.4117C20 37.4278 23.271 44.6949 28.5759 50C23.2712 55.305 20.0002 62.5719 20 70.5877V70.5883V99.9994H49.8053C49.8442 99.9996 49.8831 99.9998 49.922 99.9999C49.948 100 49.974 100 50 100C50.065 100 50.1299 99.9998 50.1947 99.9994H80V70.5883V70.5877C79.9998 62.5719 76.7288 55.305 71.4241 50Z" fill="white"/>
</svg>
