<?xml version="1.0" encoding="UTF-8"?>
<svg id="Laag_1" data-name="Laag 1" xmlns="http://www.w3.org/2000/svg" viewBox="0 0 831.8 83.9">
  <g>
    <path d="M0,82.46V2.2h16.34v66.63h40.63v13.64H0Z" style="fill: #fff;"/>
    <path d="M65.31,42.49c0-8.24,1.23-15.16,3.7-20.76,1.84-4.12,4.35-7.82,7.54-11.1,3.18-3.27,6.67-5.7,10.46-7.29,5.04-2.13,10.86-3.2,17.44-3.2,11.92,0,21.46,3.7,28.62,11.1,7.16,7.4,10.74,17.68,10.74,30.86s-3.55,23.29-10.65,30.67c-7.1,7.38-16.6,11.07-28.48,11.07s-21.6-3.67-28.71-11.01c-7.1-7.34-10.65-17.45-10.65-30.33ZM82.14,41.94c0,9.16,2.12,16.11,6.35,20.84,4.23,4.73,9.61,7.09,16.12,7.09s11.86-2.35,16.04-7.04c4.18-4.69,6.27-11.73,6.27-21.12s-2.03-16.19-6.1-20.76c-4.07-4.56-9.47-6.85-16.2-6.85s-12.16,2.31-16.28,6.93c-4.12,4.62-6.18,11.58-6.18,20.89Z" style="fill: #fff;"/>
    <path d="M177.2,82.46L148.28,1.53h17.72l20.48,59.9L206.29,1.53h17.33l-28.98,80.93h-17.44Z" style="fill: #fff;"/>
    <path d="M231.96,82.46V1.53h60.01v13.69h-43.67v17.94h40.63v13.64h-40.63v22.03h45.21v13.64h-61.55Z" style="fill: #fff;"/>
    <path d="M334.64,56.13l15.9-1.55c.96,5.34,2.9,9.26,5.82,11.76,2.93,2.5,6.87,3.75,11.84,3.75,5.26,0,9.23-1.11,11.9-3.34,2.67-2.23,4-4.83,4-7.81,0-1.91-.56-3.54-1.68-4.89-1.12-1.34-3.08-2.51-5.88-3.51-1.91-.66-6.27-1.84-13.08-3.53-8.76-2.17-14.91-4.84-18.44-8-4.97-4.45-7.45-9.88-7.45-16.29,0-4.12,1.17-7.98,3.51-11.56,2.34-3.59,5.7-6.32,10.1-8.2,4.4-1.88,9.71-2.82,15.93-2.82,10.16,0,17.8,2.23,22.94,6.68,5.13,4.45,7.83,10.4,8.09,17.83l-16.34.72c-.7-4.16-2.2-7.15-4.5-8.97s-5.75-2.73-10.35-2.73-8.46.98-11.15,2.93c-1.73,1.25-2.59,2.93-2.59,5.02,0,1.91.81,3.55,2.43,4.91,2.06,1.73,7.07,3.53,15.02,5.41s13.83,3.82,17.64,5.82c3.81,2.01,6.79,4.75,8.94,8.23,2.15,3.48,3.23,7.77,3.23,12.89,0,4.64-1.29,8.98-3.86,13.03-2.58,4.05-6.22,7.06-10.93,9.03s-10.58,2.95-17.61,2.95c-10.23,0-18.09-2.36-23.57-7.09-5.48-4.73-8.76-11.62-9.83-20.67Z" style="fill: #fff;"/>
    <path d="M414.63,82.46V2.2h16.34v66.63h40.63v13.64h-56.97Z" style="fill: #fff;"/>
    <path d="M719.3,82.46V15.22h-24.01V1.53h64.31v13.69h-23.96v67.24h-16.34Z" style="fill: #fff;"/>
    <path d="M766,56.13l15.9-1.55c.96,5.34,2.9,9.26,5.82,11.76,2.93,2.5,6.87,3.75,11.84,3.75,5.26,0,9.23-1.11,11.9-3.34,2.67-2.23,4-4.83,4-7.81,0-1.91-.56-3.54-1.68-4.89-1.12-1.34-3.08-2.51-5.88-3.51-1.91-.66-6.28-1.84-13.08-3.53-8.76-2.17-14.91-4.84-18.44-8-4.97-4.45-7.45-9.88-7.45-16.29,0-4.12,1.17-7.98,3.51-11.56,2.34-3.59,5.7-6.32,10.1-8.2s9.71-2.82,15.93-2.82c10.16,0,17.8,2.23,22.94,6.68,5.13,4.45,7.83,10.4,8.09,17.83l-16.34.72c-.7-4.16-2.2-7.15-4.5-8.97s-5.75-2.73-10.35-2.73-8.46.98-11.15,2.93c-1.73,1.25-2.59,2.93-2.59,5.02,0,1.91.81,3.55,2.43,4.91,2.06,1.73,7.07,3.53,15.02,5.41,7.95,1.88,13.83,3.82,17.64,5.82,3.81,2.01,6.79,4.75,8.94,8.23,2.15,3.48,3.23,7.77,3.23,12.89,0,4.64-1.29,8.98-3.86,13.03-2.58,4.05-6.22,7.06-10.93,9.03s-10.58,2.95-17.61,2.95c-10.23,0-18.09-2.36-23.57-7.09-5.48-4.73-8.76-11.62-9.83-20.67Z" style="fill: #fff;"/>
  </g>
  <g>
    <path d="M601.68,35.18c0-4.39-3.55-7.94-7.94-7.94-3.65,0-6.72,2.46-7.65,5.81-.93-3.35-4-5.81-7.65-5.81-4.39,0-7.94,3.55-7.94,7.94,0,1.46.4,2.82,1.08,4h0l14.51,17.47,14.16-16.93c.9-1.29,1.43-2.85,1.43-4.54Z" style="fill: #fff;"/>
    <path d="M544.84,35.18c0-4.39-3.55-7.94-7.94-7.94-3.65,0-6.72,2.46-7.65,5.81-.93-3.35-4-5.81-7.65-5.81-4.39,0-7.94,3.55-7.94,7.94,0,1.46.4,2.82,1.08,4h0l14.51,17.47,14.16-16.93c.9-1.29,1.43-2.85,1.43-4.54Z" style="fill: #fff;"/>
    <path d="M657.66,35.18c0-4.39-3.55-7.94-7.94-7.94-3.65,0-6.72,2.46-7.65,5.81-.93-3.35-4-5.81-7.65-5.81-4.39,0-7.94,3.55-7.94,7.94,0,1.46.4,2.82,1.08,4h0l14.51,17.47,14.16-16.93c.9-1.29,1.43-2.85,1.43-4.54Z" style="fill: #fff;"/>
    <path d="M666.85,0h-161.52c-1.76,1.15-23.9,16.12-24.13,43.49-.2,23.89,16.45,38.42,18.8,40.4h172.18c2.35-1.98,19-16.52,18.8-40.4-.23-27.37-22.37-42.34-24.13-43.49ZM611.14,41.7c.2,10.9-.22,24.04-1.26,33.85h-48.51c-1.27-9.81-2.27-22.94-2.07-33.85.24-12.78,1.77-25.02,3.68-34.75h44.47c1.91,9.73,3.45,21.96,3.68,34.75ZM509.83,75.54c-2.37-8.28-4.45-19.56-3.65-32.9.9-15.16,5.16-27.35,9.05-35.7h38.02c-1.37,9.85-2.32,21.84-2.24,34.1.08,11.01,1.19,24.38,2.54,34.49h-43.71ZM662.35,75.54h-44.93c1.12-10.11,1.65-23.48,1.73-34.49.08-12.26-.87-24.26-2.24-34.1h40.06c3.89,8.35,8.15,20.54,9.05,35.7.79,13.34-1.28,24.62-3.65,32.9Z" style="fill: #fff;"/>
  </g>
</svg>