<?xml version="1.0" encoding="UTF-8"?>
<svg id="Laag_1" data-name="Laag 1" xmlns="http://www.w3.org/2000/svg" viewBox="0 0 113.39 119.76">
  <g>
    <circle cx="56.69" cy="63.07" r="56.69" style="fill: #f6a11a;"/>
    <circle cx="56.69" cy="60.06" r="45.16" style="fill: #fcbe12;"/>
    <path d="M56.69,0C25.38,0,0,25.38,0,56.69s25.38,56.69,56.69,56.69,56.69-25.38,56.69-56.69S88,0,56.69,0ZM56.69,101.07c-24.51,0-44.38-19.87-44.38-44.38S32.18,12.32,56.69,12.32s44.38,19.87,44.38,44.38-19.87,44.38-44.38,44.38Z" style="fill: #fddb12;"/>
  </g>
  <g>
    <path d="M87.43,49.77c0-8.64-7.01-15.65-15.65-15.65-7.19,0-13.25,4.85-15.08,11.46-1.83-6.61-7.89-11.46-15.08-11.46-8.64,0-15.65,7.01-15.65,15.65,0,2.88.78,5.57,2.13,7.88h0l28.61,34.44,27.92-33.38c1.77-2.54,2.81-5.62,2.81-8.94Z" style="fill: #f6a11a;"/>
    <path d="M87.43,43.32c0-8.64-7.01-15.65-15.65-15.65-7.19,0-13.25,4.85-15.08,11.46-1.83-6.61-7.89-11.46-15.08-11.46-8.64,0-15.65,7.01-15.65,15.65,0,2.88.78,5.57,2.13,7.88h0l28.61,34.44,27.92-33.38c1.77-2.54,2.81-5.62,2.81-8.94Z" style="fill: #fff;"/>
  </g>
</svg>