<?xml version="1.0" encoding="UTF-8"?>
<svg id="Laag_2" data-name="Laag 2" xmlns="http://www.w3.org/2000/svg" viewBox="0 0 542.11 542.29">
  <g id="Laag_1-2" data-name="Laag 1">
    <path d="m542.11,354.35c-27.39,89.35-97.76,159.92-186.99,187.59-49.28-21.98-83.7-71.26-84.06-128.62,0,57.28-33.98,106.63-82.89,128.97h-.01C98.55,514.94,27.79,444.37.16,354.88c22.26-49.12,71.73-83.29,129.17-83.29-57.58,0-107.15-34.34-129.33-83.66C27.4,98.58,97.77,28.02,187,.35c49.28,21.98,83.71,71.26,84.06,128.62,0-57.28,33.98-106.62,82.88-128.97h0c89.61,27.35,160.37,97.92,188,187.41-22.26,49.12-71.72,83.29-129.16,83.29,57.58,0,107.14,34.34,129.32,83.65Z" style="fill: #ffed00; stroke-width: 0px;"/>
  </g>
</svg>