<svg width="30" height="30" viewBox="0 0 30 30" fill="none" xmlns="http://www.w3.org/2000/svg">
<path d="M10.5 18H25.5L20.325 11.25L16.875 15.75L14.55 12.75L10.5 18ZM9 24C8.175 24 7.46875 23.7063 6.88125 23.1188C6.29375 22.5313 6 21.825 6 21V3C6 2.175 6.29375 1.46875 6.88125 0.88125C7.46875 0.29375 8.175 0 9 0H27C27.825 0 28.5313 0.29375 29.1188 0.88125C29.7063 1.46875 30 2.175 30 3V21C30 21.825 29.7063 22.5313 29.1188 23.1188C28.5313 23.7063 27.825 24 27 24H9ZM9 21H27V3H9V21ZM3 30C2.175 30 1.46875 29.7063 0.88125 29.1188C0.29375 28.5313 0 27.825 0 27V6H3V27H24V30H3Z" fill="#E3E3E3"/>
</svg>
