<svg width="31" height="30" viewBox="0 0 31 30" fill="none" xmlns="http://www.w3.org/2000/svg">
<g clip-path="url(#clip0_640_223)">
<path d="M19.0598 14.9894C19.0598 17.1659 17.2988 18.9305 15.1273 18.9305C12.9558 18.9305 11.1943 17.1659 11.1943 14.9894C11.1943 12.813 12.9553 11.0488 15.1273 11.0488C17.2993 11.0488 19.0598 12.813 19.0598 14.9894Z" fill="#E2E2E7"/>
<path d="M22.9776 6.89913C22.0925 6.01168 20.9221 5.52344 19.682 5.52344H10.562C9.32197 5.52344 8.15157 6.01168 7.26642 6.89913C6.38126 7.78611 5.89355 8.95892 5.89355 10.2011V19.9396C5.89355 21.1822 6.38126 22.355 7.26642 23.242C8.15157 24.129 9.32197 24.6177 10.562 24.6177H19.682C20.9221 24.6177 22.0925 24.129 22.9776 23.242C23.8633 22.355 24.3505 21.1822 24.3505 19.9396V10.2011C24.3505 8.95892 23.8633 7.78611 22.9776 6.89913ZM15.1557 21.0018C11.839 21.0018 9.14989 18.3076 9.14989 14.9837C9.14989 11.6597 11.839 8.96548 15.1557 8.96548C18.4723 8.96548 21.1615 11.6602 21.1615 14.9837C21.1615 18.3072 18.4728 21.0018 15.1557 21.0018ZM21.2583 10.2971C20.4727 10.2971 19.8359 9.65895 19.8359 8.87176C19.8359 8.08458 20.4727 7.44687 21.2583 7.44687C22.0438 7.44687 22.6802 8.08505 22.6802 8.87176C22.6802 9.65848 22.0434 10.2971 21.2583 10.2971Z" fill="#E2E2E7"/>
<path d="M23.6398 0H6.69416C3.089 0 0.166992 2.94255 0.166992 6.57202V23.428C0.166992 27.0574 3.089 30 6.69416 30H23.6398C27.245 30 30.167 27.0574 30.167 23.428V6.57202C30.167 2.94255 27.245 0 23.6398 0ZM26.0274 19.94C26.0274 23.4369 23.1722 26.2979 19.6826 26.2979H10.5621C7.07244 26.2979 4.21731 23.4369 4.21731 19.94V10.2015C4.21731 6.70462 7.07244 3.84359 10.5621 3.84359H19.6826C23.1722 3.84359 26.0274 6.70462 26.0274 10.2015V19.94Z" fill="#E2E2E7"/>
</g>
<defs>
<clipPath id="clip0_640_223">
<rect width="30" height="30" fill="white" transform="translate(0.166992)"/>
</clipPath>
</defs>
</svg>
